<svg width="330" height="152" viewBox="0 0 330 152" fill="none" xmlns="http://www.w3.org/2000/svg">
<path d="M109.059 58.1758L89.0898 57.7891L94.6797 55.1875L94.6445 40.8086L86.9453 56.3477L78.543 41.7227L79.0703 55.8906L89.3008 58.9141H66.3086L75.625 55.9258L74.1484 35.9219L66.0977 32.4414L81.25 32.582L87.8945 46.0469L95.6992 31.8789L108.918 32.3711L101.711 35.2539L100.727 55.2227L109.059 58.1758ZM116.652 33.1445C116.652 33.6602 116.547 34.1523 116.336 34.6211C116.148 35.0664 115.879 35.4648 115.527 35.8164C115.199 36.1445 114.801 36.4141 114.332 36.625C113.887 36.8125 113.406 36.9062 112.891 36.9062C112.375 36.9062 111.895 36.8125 111.449 36.625C111.004 36.4141 110.605 36.1445 110.254 35.8164C109.926 35.4648 109.656 35.0664 109.445 34.6211C109.258 34.1523 109.164 33.6602 109.164 33.1445C109.164 32.6289 109.258 32.1484 109.445 31.7031C109.656 31.2578 109.926 30.8711 110.254 30.543C110.605 30.1914 111.004 29.9219 111.449 29.7344C111.895 29.5234 112.375 29.418 112.891 29.418C113.406 29.418 113.887 29.5234 114.332 29.7344C114.801 29.9219 115.199 30.1914 115.527 30.543C115.879 30.8711 116.148 31.2578 116.336 31.7031C116.547 32.1484 116.652 32.6289 116.652 33.1445ZM120.766 58.0703L105.016 57.7891L110.852 54.168L110.359 42.4961L103.645 39.332H116.547L115.387 54.4141L120.766 58.0703ZM138.098 52.0586C138.098 53.2305 137.828 54.1914 137.289 54.9414C136.75 55.6914 136.07 56.2891 135.25 56.7344C134.43 57.1562 133.516 57.4609 132.508 57.6484C131.5 57.8125 130.527 57.8945 129.59 57.8945C129.051 57.8945 128.453 57.8594 127.797 57.7891C127.164 57.6953 126.531 57.5664 125.898 57.4023C125.266 57.2383 124.645 57.0391 124.035 56.8047C123.449 56.5703 122.922 56.2891 122.453 55.9609L119.605 59.3008L120.695 48.543C121.094 49.4102 121.598 50.2305 122.207 51.0039C122.84 51.7773 123.555 52.457 124.352 53.043C125.148 53.6289 126.004 54.0977 126.918 54.4492C127.832 54.7773 128.781 54.9414 129.766 54.9414C130.023 54.9414 130.316 54.9297 130.645 54.9062C130.996 54.8594 131.324 54.7773 131.629 54.6602C131.957 54.543 132.227 54.3789 132.438 54.168C132.648 53.957 132.754 53.6758 132.754 53.3242C132.754 52.9258 132.543 52.5625 132.121 52.2344C131.699 51.8828 131.207 51.5898 130.645 51.3555C130.082 51.0977 129.52 50.8867 128.957 50.7227C128.395 50.5352 127.973 50.3945 127.691 50.3008C126.895 50.0664 126.016 49.75 125.055 49.3516C124.117 48.9297 123.238 48.4375 122.418 47.875C121.621 47.2891 120.953 46.6094 120.414 45.8359C119.875 45.0391 119.605 44.125 119.605 43.0938C119.605 42.1094 119.84 41.2305 120.309 40.457C120.801 39.6836 121.422 39.0391 122.172 38.5234C122.922 37.9844 123.754 37.5859 124.668 37.3281C125.605 37.0469 126.52 36.9062 127.41 36.9062C128.816 36.9062 130.141 37.1641 131.383 37.6797C132.648 38.1719 133.797 38.8867 134.828 39.8242L137.008 35.6055L136.551 46.7148C136.129 45.918 135.602 45.1211 134.969 44.3242C134.336 43.5039 133.633 42.7656 132.859 42.1094C132.086 41.4531 131.254 40.9258 130.363 40.5273C129.473 40.1289 128.547 39.9297 127.586 39.9297C127.305 39.9297 126.977 39.9648 126.602 40.0352C126.25 40.082 125.91 40.1758 125.582 40.3164C125.277 40.457 125.008 40.6562 124.773 40.9141C124.562 41.1484 124.457 41.4531 124.457 41.8281C124.457 42.2734 124.621 42.6602 124.949 42.9883C125.301 43.3164 125.711 43.6094 126.18 43.8672C126.672 44.1016 127.164 44.3125 127.656 44.5C128.172 44.6641 128.594 44.793 128.922 44.8867C129.766 45.168 130.715 45.4961 131.77 45.8711C132.824 46.2461 133.82 46.7031 134.758 47.2422C135.695 47.7812 136.48 48.4492 137.113 49.2461C137.77 50.0195 138.098 50.957 138.098 52.0586ZM157.293 52.0586C157.293 53.2305 157.023 54.1914 156.484 54.9414C155.945 55.6914 155.266 56.2891 154.445 56.7344C153.625 57.1562 152.711 57.4609 151.703 57.6484C150.695 57.8125 149.723 57.8945 148.785 57.8945C148.246 57.8945 147.648 57.8594 146.992 57.7891C146.359 57.6953 145.727 57.5664 145.094 57.4023C144.461 57.2383 143.84 57.0391 143.23 56.8047C142.645 56.5703 142.117 56.2891 141.648 55.9609L138.801 59.3008L139.891 48.543C140.289 49.4102 140.793 50.2305 141.402 51.0039C142.035 51.7773 142.75 52.457 143.547 53.043C144.344 53.6289 145.199 54.0977 146.113 54.4492C147.027 54.7773 147.977 54.9414 148.961 54.9414C149.219 54.9414 149.512 54.9297 149.84 54.9062C150.191 54.8594 150.52 54.7773 150.824 54.6602C151.152 54.543 151.422 54.3789 151.633 54.168C151.844 53.957 151.949 53.6758 151.949 53.3242C151.949 52.9258 151.738 52.5625 151.316 52.2344C150.895 51.8828 150.402 51.5898 149.84 51.3555C149.277 51.0977 148.715 50.8867 148.152 50.7227C147.59 50.5352 147.168 50.3945 146.887 50.3008C146.09 50.0664 145.211 49.75 144.25 49.3516C143.312 48.9297 142.434 48.4375 141.613 47.875C140.816 47.2891 140.148 46.6094 139.609 45.8359C139.07 45.0391 138.801 44.125 138.801 43.0938C138.801 42.1094 139.035 41.2305 139.504 40.457C139.996 39.6836 140.617 39.0391 141.367 38.5234C142.117 37.9844 142.949 37.5859 143.863 37.3281C144.801 37.0469 145.715 36.9062 146.605 36.9062C148.012 36.9062 149.336 37.1641 150.578 37.6797C151.844 38.1719 152.992 38.8867 154.023 39.8242L156.203 35.6055L155.746 46.7148C155.324 45.918 154.797 45.1211 154.164 44.3242C153.531 43.5039 152.828 42.7656 152.055 42.1094C151.281 41.4531 150.449 40.9258 149.559 40.5273C148.668 40.1289 147.742 39.9297 146.781 39.9297C146.5 39.9297 146.172 39.9648 145.797 40.0352C145.445 40.082 145.105 40.1758 144.777 40.3164C144.473 40.457 144.203 40.6562 143.969 40.9141C143.758 41.1484 143.652 41.4531 143.652 41.8281C143.652 42.2734 143.816 42.6602 144.145 42.9883C144.496 43.3164 144.906 43.6094 145.375 43.8672C145.867 44.1016 146.359 44.3125 146.852 44.5C147.367 44.6641 147.789 44.793 148.117 44.8867C148.961 45.168 149.91 45.4961 150.965 45.8711C152.02 46.2461 153.016 46.7031 153.953 47.2422C154.891 47.7812 155.676 48.4492 156.309 49.2461C156.965 50.0195 157.293 50.957 157.293 52.0586ZM169.211 33.1445C169.211 33.6602 169.105 34.1523 168.895 34.6211C168.707 35.0664 168.438 35.4648 168.086 35.8164C167.758 36.1445 167.359 36.4141 166.891 36.625C166.445 36.8125 165.965 36.9062 165.449 36.9062C164.934 36.9062 164.453 36.8125 164.008 36.625C163.562 36.4141 163.164 36.1445 162.812 35.8164C162.484 35.4648 162.215 35.0664 162.004 34.6211C161.816 34.1523 161.723 33.6602 161.723 33.1445C161.723 32.6289 161.816 32.1484 162.004 31.7031C162.215 31.2578 162.484 30.8711 162.812 30.543C163.164 30.1914 163.562 29.9219 164.008 29.7344C164.453 29.5234 164.934 29.418 165.449 29.418C165.965 29.418 166.445 29.5234 166.891 29.7344C167.359 29.9219 167.758 30.1914 168.086 30.543C168.438 30.8711 168.707 31.2578 168.895 31.7031C169.105 32.1484 169.211 32.6289 169.211 33.1445ZM173.324 58.0703L157.574 57.7891L163.41 54.168L162.918 42.4961L156.203 39.332H169.105L167.945 54.4141L173.324 58.0703ZM196.492 49.4922C196.492 51.1094 196.082 52.4805 195.262 53.6055C194.465 54.707 193.434 55.6094 192.168 56.3125C190.926 56.9922 189.566 57.4961 188.09 57.8242C186.613 58.1289 185.207 58.2812 183.871 58.2812C182.559 58.2812 181.188 58.1172 179.758 57.7891C178.352 57.4609 177.051 56.9453 175.855 56.2422C174.684 55.5391 173.711 54.6367 172.938 53.5352C172.188 52.4102 171.812 51.0625 171.812 49.4922C171.812 47.7812 172.223 46.3633 173.043 45.2383C173.863 44.1133 174.895 43.2227 176.137 42.5664C177.402 41.9102 178.785 41.4531 180.285 41.1953C181.809 40.9375 183.273 40.8086 184.68 40.8086C185.969 40.8086 187.305 40.9727 188.688 41.3008C190.094 41.6289 191.371 42.1445 192.52 42.8477C193.691 43.5273 194.641 44.418 195.367 45.5195C196.117 46.6211 196.492 47.9453 196.492 49.4922ZM190.691 49.4219C190.691 48.5781 190.527 47.8047 190.199 47.1016C189.895 46.3984 189.461 45.7891 188.898 45.2734C188.359 44.7578 187.727 44.3594 187 44.0781C186.273 43.7969 185.5 43.6562 184.68 43.6562C183.836 43.6562 182.992 43.7852 182.148 44.043C181.305 44.2773 180.543 44.6289 179.863 45.0977C179.184 45.5664 178.633 46.1641 178.211 46.8906C177.789 47.5938 177.578 48.4023 177.578 49.3164C177.578 50.2305 177.719 51.0625 178 51.8125C178.305 52.5625 178.727 53.207 179.266 53.7461C179.828 54.2852 180.484 54.707 181.234 55.0117C181.984 55.293 182.816 55.4336 183.73 55.4336C184.715 55.4336 185.629 55.3281 186.473 55.1172C187.316 54.8828 188.055 54.5195 188.688 54.0273C189.32 53.5352 189.812 52.9141 190.164 52.1641C190.516 51.3906 190.691 50.4766 190.691 49.4219ZM221.453 55.6797L206.195 55.7852L212.77 53.2539V46.9258C212.77 45.6836 212.453 44.6992 211.82 43.9727C211.211 43.2227 210.273 42.8477 209.008 42.8477C208.375 42.8477 207.695 42.9531 206.969 43.1641C206.266 43.375 205.738 43.7734 205.387 44.3594L204.613 51.1797C204.848 51.3672 205.211 51.6016 205.703 51.8828C206.219 52.1641 206.746 52.4453 207.285 52.7266C207.895 53.0547 208.551 53.3945 209.254 53.7461L194.805 53.8164L200.711 51.3906L199.656 42.918C198.977 42.7305 198.191 42.5195 197.301 42.2852C196.41 42.0273 195.555 41.7695 194.734 41.5117C193.797 41.2305 192.824 40.9375 191.816 40.6328L205.773 38.3125L205.598 40.457C206.418 40.1289 207.297 39.8008 208.234 39.4727C209.172 39.1445 210.086 38.9805 210.977 38.9805C213.109 38.9805 214.762 39.5547 215.934 40.7031C217.105 41.8516 217.691 43.5039 217.691 45.6602C217.691 46.1992 217.656 46.8086 217.586 47.4883C217.539 48.1445 217.469 48.8125 217.375 49.4922C217.281 50.1719 217.176 50.8516 217.059 51.5312C216.965 52.1875 216.871 52.7969 216.777 53.3594L221.453 55.6797ZM257.312 41.6523C257.312 42.5195 257.008 43.2812 256.398 43.9375C255.789 44.5703 254.992 45.1328 254.008 45.625C253.047 46.0938 251.969 46.4922 250.773 46.8203C249.602 47.1484 248.43 47.418 247.258 47.6289C246.109 47.8398 245.031 48.0039 244.023 48.1211C243.039 48.2148 242.254 48.2734 241.668 48.2969L241.949 55.4688L250.105 58.8438L227.922 59.125L235.48 55.1523L235.164 38.6641L226.867 34.9023L243.777 35.3594C244.41 35.3828 245.184 35.4297 246.098 35.5C247.035 35.5703 247.996 35.6992 248.98 35.8867C249.988 36.0508 250.984 36.2852 251.969 36.5898C252.977 36.8711 253.867 37.2461 254.641 37.7148C255.438 38.1602 256.082 38.7109 256.574 39.3672C257.066 40 257.312 40.7617 257.312 41.6523ZM252.461 41.6523C252.461 41.2305 252.297 40.8672 251.969 40.5625C251.641 40.2344 251.219 39.9648 250.703 39.7539C250.188 39.5195 249.613 39.332 248.98 39.1914C248.348 39.0273 247.727 38.9102 247.117 38.8398C246.508 38.7461 245.945 38.6875 245.43 38.6641C244.938 38.6172 244.551 38.5938 244.27 38.5938C243.73 38.5938 243.18 38.6055 242.617 38.6289C242.055 38.6523 241.504 38.6875 240.965 38.7344L241.141 45.2031C241.445 45.25 241.727 45.2734 241.984 45.2734C242.266 45.2734 242.547 45.2734 242.828 45.2734C243.156 45.2734 243.613 45.2617 244.199 45.2383C244.809 45.1914 245.465 45.1211 246.168 45.0273C246.895 44.9102 247.621 44.7695 248.348 44.6055C249.098 44.418 249.777 44.1953 250.387 43.9375C250.996 43.6562 251.488 43.3281 251.863 42.9531C252.262 42.5781 252.461 42.1445 252.461 41.6523ZM275.453 51.6016C275.453 51.7656 275.441 51.9297 275.418 52.0938C275.418 52.2578 275.418 52.4219 275.418 52.5859L261.109 52.8672C261.414 54.25 262.105 55.2695 263.184 55.9258C264.262 56.582 265.48 56.9102 266.84 56.9102C267.496 56.9102 268.164 56.8633 268.844 56.7695C269.523 56.6758 270.191 56.5234 270.848 56.3125C271.504 56.1016 272.125 55.832 272.711 55.5039C273.297 55.1523 273.824 54.7422 274.293 54.2734C274.035 55.2578 273.602 56.125 272.992 56.875C272.383 57.625 271.656 58.2461 270.812 58.7383C269.992 59.2305 269.09 59.5938 268.105 59.8281C267.145 60.0859 266.184 60.2148 265.223 60.2148C263.91 60.2148 262.656 59.9805 261.461 59.5117C260.289 59.043 259.258 58.3984 258.367 57.5781C257.5 56.7578 256.809 55.7734 256.293 54.625C255.777 53.4766 255.52 52.2227 255.52 50.8633C255.52 49.4336 255.812 48.1328 256.398 46.9609C256.984 45.7891 257.758 44.793 258.719 43.9727C259.68 43.1289 260.793 42.4844 262.059 42.0391C263.324 41.5938 264.648 41.3711 266.031 41.3711C267.484 41.3711 268.785 41.6406 269.934 42.1797C271.105 42.7188 272.102 43.457 272.922 44.3945C273.742 45.332 274.363 46.4219 274.785 47.6641C275.23 48.8828 275.453 50.1953 275.453 51.6016ZM270.074 49.8086C270.027 49.1758 269.898 48.5664 269.688 47.9805C269.477 47.3945 269.184 46.8789 268.809 46.4336C268.434 45.9883 267.977 45.6367 267.438 45.3789C266.922 45.0977 266.312 44.957 265.609 44.957C264.906 44.957 264.297 45.0859 263.781 45.3438C263.266 45.6016 262.832 45.9531 262.48 46.3984C262.129 46.8203 261.836 47.3242 261.602 47.9102C261.391 48.4727 261.227 49.0586 261.109 49.668L270.074 49.8086ZM298.902 58.3516L287.758 58.8086L288.004 56.8398C287.254 56.9336 286.504 56.9922 285.754 57.0156C285.004 57.0156 284.254 57.0156 283.504 57.0156C282.824 57.0156 282.074 56.9336 281.254 56.7695C280.434 56.6055 279.672 56.3477 278.969 55.9961C278.266 55.6211 277.68 55.1406 277.211 54.5547C276.742 53.9688 276.508 53.2539 276.508 52.4102C276.508 51.4727 276.73 50.6758 277.176 50.0195C277.621 49.3633 278.184 48.8359 278.863 48.4375C279.566 48.0391 280.34 47.7461 281.184 47.5586C282.027 47.3711 282.848 47.2773 283.645 47.2773C284.629 47.2773 285.59 47.3242 286.527 47.418C287.465 47.5117 288.414 47.5938 289.375 47.6641C289.422 47.3594 289.457 47.0547 289.48 46.75C289.504 46.4219 289.516 46.0938 289.516 45.7656C289.516 45.1328 289.457 44.5117 289.34 43.9023C289.246 43.293 289.059 42.7539 288.777 42.2852C288.52 41.793 288.145 41.4062 287.652 41.125C287.184 40.8438 286.574 40.7031 285.824 40.7031C285.121 40.7031 284.477 40.8203 283.891 41.0547C283.328 41.2656 282.824 41.6406 282.379 42.1797C282.707 42.4375 282.93 42.7305 283.047 43.0586C283.164 43.3633 283.223 43.7148 283.223 44.1133V44.3242C282.871 45.9648 281.84 46.7852 280.129 46.7852C279.355 46.7852 278.723 46.5156 278.23 45.9766C277.738 45.4141 277.492 44.7578 277.492 44.0078C277.492 42.9766 277.785 42.0859 278.371 41.3359C278.957 40.5859 279.672 39.9648 280.516 39.4727C281.383 38.9805 282.309 38.6172 283.293 38.3828C284.301 38.1484 285.227 38.0312 286.07 38.0312C288.766 38.0312 290.863 38.6523 292.363 39.8945C293.887 41.1367 294.648 43.1641 294.648 45.9766C294.648 46.2812 294.637 46.5859 294.613 46.8906C294.613 47.1953 294.602 47.5 294.578 47.8047L293.734 55.8906C294.625 56.2891 295.492 56.6992 296.336 57.1211C297.18 57.543 298.035 57.9531 298.902 58.3516ZM288.988 50.0195C288.379 49.9492 287.77 49.8789 287.16 49.8086C286.551 49.7148 285.941 49.668 285.332 49.668C284.934 49.668 284.535 49.7148 284.137 49.8086C283.762 49.8789 283.41 50.0078 283.082 50.1953C282.777 50.3828 282.531 50.6406 282.344 50.9688C282.156 51.2734 282.062 51.6602 282.062 52.1289C282.062 52.4805 282.145 52.7969 282.309 53.0781C282.473 53.3359 282.684 53.5586 282.941 53.7461C283.223 53.9336 283.516 54.0742 283.82 54.168C284.148 54.2617 284.465 54.3086 284.77 54.3086C285.379 54.3086 285.988 54.2734 286.598 54.2031C287.23 54.1328 287.84 54.0625 288.426 53.9922L288.988 50.0195ZM327.344 58.0703L310.363 61.6914L315.988 57.4727L308.852 46.5391L306.074 48.4023L305.934 54.8359L312.965 57.6484L294.227 58.3867L301.152 54.8711L299.676 32.0547L291.379 30.1211L306.637 28.9609L306.215 44.6055L313.668 38.2773L308.113 34.9727H326.184L318.098 38.7695L312.262 43.1992L320.172 56.2422L327.344 58.0703ZM125.125 85.8594L122.734 100.52C122.43 99.5117 122.02 98.5039 121.504 97.4961C121.012 96.4883 120.402 95.5977 119.676 94.8242C118.949 94.0273 118.105 93.3828 117.145 92.8906C116.207 92.3984 115.152 92.1523 113.98 92.1523C112.645 92.1523 111.438 92.3984 110.359 92.8906C109.281 93.3594 108.355 94.0156 107.582 94.8594C106.832 95.6797 106.258 96.6523 105.859 97.7773C105.461 98.9023 105.262 100.109 105.262 101.398C105.262 102.805 105.449 104.117 105.824 105.336C106.223 106.531 106.809 107.586 107.582 108.5C108.355 109.391 109.305 110.094 110.43 110.609C111.555 111.102 112.855 111.348 114.332 111.348C116.676 111.348 118.516 110.703 119.852 109.414C121.211 108.125 122.055 106.344 122.383 104.07L124.773 115.848L121.926 111.77C121.387 112.379 120.766 112.883 120.062 113.281C119.359 113.703 118.609 114.043 117.812 114.301C117.016 114.559 116.195 114.746 115.352 114.863C114.531 114.98 113.734 115.039 112.961 115.039C110.922 115.039 109.023 114.711 107.266 114.055C105.531 113.398 104.008 112.461 102.695 111.242C101.406 110.023 100.387 108.57 99.6367 106.883C98.9102 105.172 98.5469 103.273 98.5469 101.188C98.5469 99.125 98.9219 97.2969 99.6719 95.7031C100.445 94.0859 101.488 92.7266 102.801 91.625C104.113 90.5234 105.637 89.6914 107.371 89.1289C109.129 88.5664 110.98 88.2852 112.926 88.2852C113.605 88.2852 114.309 88.3555 115.035 88.4961C115.785 88.6133 116.523 88.8008 117.25 89.0586C117.977 89.3164 118.656 89.6445 119.289 90.043C119.922 90.418 120.473 90.8633 120.941 91.3789L125.125 85.8594ZM149.383 104.492C149.383 106.109 148.973 107.48 148.152 108.605C147.355 109.707 146.324 110.609 145.059 111.312C143.816 111.992 142.457 112.496 140.98 112.824C139.504 113.129 138.098 113.281 136.762 113.281C135.449 113.281 134.078 113.117 132.648 112.789C131.242 112.461 129.941 111.945 128.746 111.242C127.574 110.539 126.602 109.637 125.828 108.535C125.078 107.41 124.703 106.062 124.703 104.492C124.703 102.781 125.113 101.363 125.934 100.238C126.754 99.1133 127.785 98.2227 129.027 97.5664C130.293 96.9102 131.676 96.4531 133.176 96.1953C134.699 95.9375 136.164 95.8086 137.57 95.8086C138.859 95.8086 140.195 95.9727 141.578 96.3008C142.984 96.6289 144.262 97.1445 145.41 97.8477C146.582 98.5273 147.531 99.418 148.258 100.52C149.008 101.621 149.383 102.945 149.383 104.492ZM143.582 104.422C143.582 103.578 143.418 102.805 143.09 102.102C142.785 101.398 142.352 100.789 141.789 100.273C141.25 99.7578 140.617 99.3594 139.891 99.0781C139.164 98.7969 138.391 98.6562 137.57 98.6562C136.727 98.6562 135.883 98.7852 135.039 99.043C134.195 99.2773 133.434 99.6289 132.754 100.098C132.074 100.566 131.523 101.164 131.102 101.891C130.68 102.594 130.469 103.402 130.469 104.316C130.469 105.23 130.609 106.062 130.891 106.812C131.195 107.562 131.617 108.207 132.156 108.746C132.719 109.285 133.375 109.707 134.125 110.012C134.875 110.293 135.707 110.434 136.621 110.434C137.605 110.434 138.52 110.328 139.363 110.117C140.207 109.883 140.945 109.52 141.578 109.027C142.211 108.535 142.703 107.914 143.055 107.164C143.406 106.391 143.582 105.477 143.582 104.422ZM168.051 85.3672C168.051 86.1172 167.793 86.75 167.277 87.2656C166.762 87.7578 166.129 88.0039 165.379 88.0039C164.629 88.0039 163.961 87.7578 163.375 87.2656C162.812 86.7734 162.531 86.1289 162.531 85.332C162.531 84.5352 162.848 83.8789 163.48 83.3633C163.316 82.8242 163.035 82.3789 162.637 82.0273C162.238 81.6523 161.746 81.4648 161.16 81.4648C160.41 81.4648 159.812 81.7227 159.367 82.2383C158.945 82.7305 158.629 83.3398 158.418 84.0664C158.207 84.7695 158.078 85.5078 158.031 86.2812C157.984 87.0547 157.961 87.6992 157.961 88.2148C157.961 89.3398 158.008 90.4648 158.102 91.5898C158.195 92.6914 158.301 93.8047 158.418 94.9297H165.309V98.1289H158.945L160.809 114.23C160.855 114.77 160.902 115.309 160.949 115.848C161.02 116.41 161.055 116.961 161.055 117.5C161.055 118.719 160.891 119.914 160.562 121.086C160.234 122.281 159.73 123.336 159.051 124.25C158.395 125.188 157.551 125.938 156.52 126.5C155.512 127.086 154.328 127.379 152.969 127.379C152.031 127.379 151.129 127.203 150.262 126.852C149.418 126.523 148.656 126.055 147.977 125.445C147.32 124.836 146.793 124.109 146.395 123.266C145.996 122.445 145.797 121.555 145.797 120.594C145.797 119.82 146.055 119.188 146.57 118.695C147.086 118.203 147.719 117.957 148.469 117.957C148.82 117.957 149.16 118.016 149.488 118.133C149.84 118.273 150.145 118.461 150.402 118.695C150.684 118.93 150.895 119.199 151.035 119.504C151.199 119.832 151.281 120.184 151.281 120.559C151.281 121.309 151 121.965 150.438 122.527C150.602 123.043 150.883 123.477 151.281 123.828C151.68 124.203 152.148 124.391 152.688 124.391C153.32 124.391 153.836 124.191 154.234 123.793C154.656 123.418 154.984 122.949 155.219 122.387C155.453 121.848 155.605 121.262 155.676 120.629C155.77 120.02 155.816 119.48 155.816 119.012C155.816 118.121 155.758 117.23 155.641 116.34C155.547 115.449 155.43 114.559 155.289 113.668L155.254 113.633L153.355 98.1289H148.117V94.9297H153.004C152.887 94.0391 152.793 93.1602 152.723 92.293C152.676 91.4258 152.652 90.5469 152.652 89.6562C152.652 88.3438 152.781 87.0195 153.039 85.6836C153.297 84.3477 153.742 83.1523 154.375 82.0977C155.008 81.0195 155.84 80.1406 156.871 79.4609C157.926 78.7812 159.238 78.4414 160.809 78.4414C161.77 78.4414 162.684 78.6172 163.551 78.9688C164.418 79.3203 165.18 79.8125 165.836 80.4453C166.516 81.0547 167.055 81.7812 167.453 82.625C167.852 83.4688 168.051 84.3828 168.051 85.3672ZM185.242 85.3672C185.242 86.1172 184.984 86.75 184.469 87.2656C183.953 87.7578 183.32 88.0039 182.57 88.0039C181.82 88.0039 181.152 87.7578 180.566 87.2656C180.004 86.7734 179.723 86.1289 179.723 85.332C179.723 84.5352 180.039 83.8789 180.672 83.3633C180.508 82.8242 180.227 82.3789 179.828 82.0273C179.43 81.6523 178.938 81.4648 178.352 81.4648C177.602 81.4648 177.004 81.7227 176.559 82.2383C176.137 82.7305 175.82 83.3398 175.609 84.0664C175.398 84.7695 175.27 85.5078 175.223 86.2812C175.176 87.0547 175.152 87.6992 175.152 88.2148C175.152 89.3398 175.199 90.4648 175.293 91.5898C175.387 92.6914 175.492 93.8047 175.609 94.9297H182.5V98.1289H176.137L178 114.23C178.047 114.77 178.094 115.309 178.141 115.848C178.211 116.41 178.246 116.961 178.246 117.5C178.246 118.719 178.082 119.914 177.754 121.086C177.426 122.281 176.922 123.336 176.242 124.25C175.586 125.188 174.742 125.938 173.711 126.5C172.703 127.086 171.52 127.379 170.16 127.379C169.223 127.379 168.32 127.203 167.453 126.852C166.609 126.523 165.848 126.055 165.168 125.445C164.512 124.836 163.984 124.109 163.586 123.266C163.188 122.445 162.988 121.555 162.988 120.594C162.988 119.82 163.246 119.188 163.762 118.695C164.277 118.203 164.91 117.957 165.66 117.957C166.012 117.957 166.352 118.016 166.68 118.133C167.031 118.273 167.336 118.461 167.594 118.695C167.875 118.93 168.086 119.199 168.227 119.504C168.391 119.832 168.473 120.184 168.473 120.559C168.473 121.309 168.191 121.965 167.629 122.527C167.793 123.043 168.074 123.477 168.473 123.828C168.871 124.203 169.34 124.391 169.879 124.391C170.512 124.391 171.027 124.191 171.426 123.793C171.848 123.418 172.176 122.949 172.41 122.387C172.645 121.848 172.797 121.262 172.867 120.629C172.961 120.02 173.008 119.48 173.008 119.012C173.008 118.121 172.949 117.23 172.832 116.34C172.738 115.449 172.621 114.559 172.48 113.668L172.445 113.633L170.547 98.1289H165.309V94.9297H170.195C170.078 94.0391 169.984 93.1602 169.914 92.293C169.867 91.4258 169.844 90.5469 169.844 89.6562C169.844 88.3438 169.973 87.0195 170.23 85.6836C170.488 84.3477 170.934 83.1523 171.566 82.0977C172.199 81.0195 173.031 80.1406 174.062 79.4609C175.117 78.7812 176.43 78.4414 178 78.4414C178.961 78.4414 179.875 78.6172 180.742 78.9688C181.609 79.3203 182.371 79.8125 183.027 80.4453C183.707 81.0547 184.246 81.7812 184.645 82.625C185.043 83.4688 185.242 84.3828 185.242 85.3672ZM201.203 106.602C201.203 106.766 201.191 106.93 201.168 107.094C201.168 107.258 201.168 107.422 201.168 107.586L186.859 107.867C187.164 109.25 187.855 110.27 188.934 110.926C190.012 111.582 191.23 111.91 192.59 111.91C193.246 111.91 193.914 111.863 194.594 111.77C195.273 111.676 195.941 111.523 196.598 111.312C197.254 111.102 197.875 110.832 198.461 110.504C199.047 110.152 199.574 109.742 200.043 109.273C199.785 110.258 199.352 111.125 198.742 111.875C198.133 112.625 197.406 113.246 196.562 113.738C195.742 114.23 194.84 114.594 193.855 114.828C192.895 115.086 191.934 115.215 190.973 115.215C189.66 115.215 188.406 114.98 187.211 114.512C186.039 114.043 185.008 113.398 184.117 112.578C183.25 111.758 182.559 110.773 182.043 109.625C181.527 108.477 181.27 107.223 181.27 105.863C181.27 104.434 181.562 103.133 182.148 101.961C182.734 100.789 183.508 99.793 184.469 98.9727C185.43 98.1289 186.543 97.4844 187.809 97.0391C189.074 96.5938 190.398 96.3711 191.781 96.3711C193.234 96.3711 194.535 96.6406 195.684 97.1797C196.855 97.7188 197.852 98.457 198.672 99.3945C199.492 100.332 200.113 101.422 200.535 102.664C200.98 103.883 201.203 105.195 201.203 106.602ZM195.824 104.809C195.777 104.176 195.648 103.566 195.438 102.98C195.227 102.395 194.934 101.879 194.559 101.434C194.184 100.988 193.727 100.637 193.188 100.379C192.672 100.098 192.062 99.957 191.359 99.957C190.656 99.957 190.047 100.086 189.531 100.344C189.016 100.602 188.582 100.953 188.23 101.398C187.879 101.82 187.586 102.324 187.352 102.91C187.141 103.473 186.977 104.059 186.859 104.668L195.824 104.809ZM222.227 106.602C222.227 106.766 222.215 106.93 222.191 107.094C222.191 107.258 222.191 107.422 222.191 107.586L207.883 107.867C208.188 109.25 208.879 110.27 209.957 110.926C211.035 111.582 212.254 111.91 213.613 111.91C214.27 111.91 214.938 111.863 215.617 111.77C216.297 111.676 216.965 111.523 217.621 111.312C218.277 111.102 218.898 110.832 219.484 110.504C220.07 110.152 220.598 109.742 221.066 109.273C220.809 110.258 220.375 111.125 219.766 111.875C219.156 112.625 218.43 113.246 217.586 113.738C216.766 114.23 215.863 114.594 214.879 114.828C213.918 115.086 212.957 115.215 211.996 115.215C210.684 115.215 209.43 114.98 208.234 114.512C207.062 114.043 206.031 113.398 205.141 112.578C204.273 111.758 203.582 110.773 203.066 109.625C202.551 108.477 202.293 107.223 202.293 105.863C202.293 104.434 202.586 103.133 203.172 101.961C203.758 100.789 204.531 99.793 205.492 98.9727C206.453 98.1289 207.566 97.4844 208.832 97.0391C210.098 96.5938 211.422 96.3711 212.805 96.3711C214.258 96.3711 215.559 96.6406 216.707 97.1797C217.879 97.7188 218.875 98.457 219.695 99.3945C220.516 100.332 221.137 101.422 221.559 102.664C222.004 103.883 222.227 105.195 222.227 106.602ZM216.848 104.809C216.801 104.176 216.672 103.566 216.461 102.98C216.25 102.395 215.957 101.879 215.582 101.434C215.207 100.988 214.75 100.637 214.211 100.379C213.695 100.098 213.086 99.957 212.383 99.957C211.68 99.957 211.07 100.086 210.555 100.344C210.039 100.602 209.605 100.953 209.254 101.398C208.902 101.82 208.609 102.324 208.375 102.91C208.164 103.473 208 104.059 207.883 104.668L216.848 104.809ZM261.391 85.8594L259 100.52C258.695 99.5117 258.285 98.5039 257.77 97.4961C257.277 96.4883 256.668 95.5977 255.941 94.8242C255.215 94.0273 254.371 93.3828 253.41 92.8906C252.473 92.3984 251.418 92.1523 250.246 92.1523C248.91 92.1523 247.703 92.3984 246.625 92.8906C245.547 93.3594 244.621 94.0156 243.848 94.8594C243.098 95.6797 242.523 96.6523 242.125 97.7773C241.727 98.9023 241.527 100.109 241.527 101.398C241.527 102.805 241.715 104.117 242.09 105.336C242.488 106.531 243.074 107.586 243.848 108.5C244.621 109.391 245.57 110.094 246.695 110.609C247.82 111.102 249.121 111.348 250.598 111.348C252.941 111.348 254.781 110.703 256.117 109.414C257.477 108.125 258.32 106.344 258.648 104.07L261.039 115.848L258.191 111.77C257.652 112.379 257.031 112.883 256.328 113.281C255.625 113.703 254.875 114.043 254.078 114.301C253.281 114.559 252.461 114.746 251.617 114.863C250.797 114.98 250 115.039 249.227 115.039C247.188 115.039 245.289 114.711 243.531 114.055C241.797 113.398 240.273 112.461 238.961 111.242C237.672 110.023 236.652 108.57 235.902 106.883C235.176 105.172 234.812 103.273 234.812 101.188C234.812 99.125 235.188 97.2969 235.938 95.7031C236.711 94.0859 237.754 92.7266 239.066 91.625C240.379 90.5234 241.902 89.6914 243.637 89.1289C245.395 88.5664 247.246 88.2852 249.191 88.2852C249.871 88.2852 250.574 88.3555 251.301 88.4961C252.051 88.6133 252.789 88.8008 253.516 89.0586C254.242 89.3164 254.922 89.6445 255.555 90.043C256.188 90.418 256.738 90.8633 257.207 91.3789L261.391 85.8594ZM285.648 104.492C285.648 106.109 285.238 107.48 284.418 108.605C283.621 109.707 282.59 110.609 281.324 111.312C280.082 111.992 278.723 112.496 277.246 112.824C275.77 113.129 274.363 113.281 273.027 113.281C271.715 113.281 270.344 113.117 268.914 112.789C267.508 112.461 266.207 111.945 265.012 111.242C263.84 110.539 262.867 109.637 262.094 108.535C261.344 107.41 260.969 106.062 260.969 104.492C260.969 102.781 261.379 101.363 262.199 100.238C263.02 99.1133 264.051 98.2227 265.293 97.5664C266.559 96.9102 267.941 96.4531 269.441 96.1953C270.965 95.9375 272.43 95.8086 273.836 95.8086C275.125 95.8086 276.461 95.9727 277.844 96.3008C279.25 96.6289 280.527 97.1445 281.676 97.8477C282.848 98.5273 283.797 99.418 284.523 100.52C285.273 101.621 285.648 102.945 285.648 104.492ZM279.848 104.422C279.848 103.578 279.684 102.805 279.355 102.102C279.051 101.398 278.617 100.789 278.055 100.273C277.516 99.7578 276.883 99.3594 276.156 99.0781C275.43 98.7969 274.656 98.6562 273.836 98.6562C272.992 98.6562 272.148 98.7852 271.305 99.043C270.461 99.2773 269.699 99.6289 269.02 100.098C268.34 100.566 267.789 101.164 267.367 101.891C266.945 102.594 266.734 103.402 266.734 104.316C266.734 105.23 266.875 106.062 267.156 106.812C267.461 107.562 267.883 108.207 268.422 108.746C268.984 109.285 269.641 109.707 270.391 110.012C271.141 110.293 271.973 110.434 272.887 110.434C273.871 110.434 274.785 110.328 275.629 110.117C276.473 109.883 277.211 109.52 277.844 109.027C278.477 108.535 278.969 107.914 279.32 107.164C279.672 106.391 279.848 105.477 279.848 104.422ZM293.805 113.141C293.805 113.633 293.699 114.066 293.488 114.441C293.277 114.816 292.996 115.121 292.645 115.355C292.316 115.613 291.93 115.801 291.484 115.918C291.062 116.059 290.629 116.129 290.184 116.129C289.762 116.129 289.316 116.07 288.848 115.953C288.402 115.836 287.992 115.648 287.617 115.391C287.242 115.156 286.938 114.852 286.703 114.477C286.469 114.125 286.352 113.703 286.352 113.211C286.352 112.695 286.457 112.238 286.668 111.84C286.902 111.441 287.195 111.113 287.547 110.855C287.922 110.574 288.332 110.363 288.777 110.223C289.223 110.082 289.68 110.012 290.148 110.012C290.57 110.012 290.992 110.094 291.414 110.258C291.859 110.398 292.258 110.609 292.609 110.891C292.961 111.172 293.242 111.512 293.453 111.91C293.688 112.285 293.805 112.695 293.805 113.141Z" fill="black"/>
<path d="M38 51L70.909 105H5.09103L38 51Z" fill="#008080"/>
</svg>
