<svg width="34" height="31" viewBox="0 0 34 31" fill="none" xmlns="http://www.w3.org/2000/svg">
<path d="M18.8211 27.7054C18.822 26.8319 19.1706 25.9945 19.7904 25.3768C20.4102 24.7592 21.2505 24.4118 22.127 24.4109C23.0035 24.4118 23.8438 24.7592 24.4636 25.3768C25.0834 25.9945 25.432 26.8319 25.4329 27.7054C25.432 28.5789 25.0834 29.4164 24.4636 30.034C23.8438 30.6517 23.0035 30.9991 22.127 31C21.2505 30.9991 20.4102 30.6516 19.7904 30.034C19.1707 29.4164 18.8221 28.5789 18.8211 27.7054V27.7054ZM20.618 27.7054C20.6185 28.1041 20.7777 28.4863 21.0605 28.7682C21.3434 29.0502 21.7269 29.2088 22.127 29.2093C22.527 29.2088 22.9106 29.0502 23.1935 28.7682C23.4763 28.4863 23.6355 28.1041 23.636 27.7054C23.6355 27.3067 23.4764 26.9245 23.1935 26.6425C22.9106 26.3606 22.527 26.202 22.127 26.2016C21.7269 26.202 21.3433 26.3605 21.0603 26.6425C20.7773 26.9244 20.6182 27.3067 20.6177 27.7054H20.618ZM8.7565 27.7054C8.75742 26.8319 9.10602 25.9945 9.72579 25.3768C10.3456 24.7592 11.1859 24.4118 12.0624 24.4109C12.9388 24.4118 13.7792 24.7592 14.399 25.3768C15.0187 25.9945 15.3673 26.8319 15.3683 27.7054C15.3673 28.5789 15.0187 29.4164 14.399 30.034C13.7792 30.6517 12.9388 30.9991 12.0624 31C11.1858 30.9992 10.3454 30.6518 9.72555 30.0341C9.1057 29.4165 8.75706 28.579 8.75611 27.7054H8.7565ZM10.5534 27.7054C10.5539 28.1041 10.713 28.4863 10.9959 28.7682C11.2788 29.0502 11.6623 29.2088 12.0624 29.2093C12.4624 29.2087 12.8459 29.0501 13.1288 28.7682C13.4117 28.4863 13.5708 28.1041 13.5714 27.7054C13.5709 27.3067 13.4117 26.9245 13.1288 26.6426C12.8459 26.3607 12.4624 26.2021 12.0624 26.2016C11.6622 26.2019 11.2786 26.3605 10.9956 26.6424C10.7126 26.9243 10.5534 27.3067 10.553 27.7054H10.5534ZM9.3142 23.9769C9.12468 23.9769 8.94005 23.9171 8.7867 23.8061C8.63335 23.6951 8.51918 23.5386 8.46047 23.3591L3.94343 9.54025H0.899538C0.781479 9.54042 0.664541 9.51739 0.555419 9.47249C0.446296 9.42758 0.347148 9.36168 0.263603 9.27855C0.180058 9.19542 0.11377 9.09669 0.0685427 8.98801C0.0233152 8.87933 1.29263e-05 8.76283 0 8.64517C0 8.40776 0.0946167 8.18007 0.26307 8.01219C0.431524 7.84431 0.66 7.75 0.898229 7.75H4.59415C4.78367 7.75004 4.96835 7.80983 5.1217 7.92081C5.27505 8.03179 5.38923 8.18827 5.44793 8.36786L6.38572 11.237H27.3376C27.5758 11.237 27.8043 11.3313 27.9727 11.4992C28.1412 11.6671 28.2358 11.8948 28.2358 12.1322C28.2359 12.1777 28.2326 12.2231 28.2259 12.2681C28.245 12.3916 28.2378 12.5178 28.2048 12.6383L25.3053 23.3158C25.2537 23.5057 25.1409 23.6733 24.9841 23.7928C24.8274 23.9124 24.6356 23.9771 24.4382 23.9771L9.3142 23.9769ZM9.96637 22.1862H23.7514L26.2391 13.0265H6.97201L9.96637 22.1862Z" fill="black"/>
<ellipse cx="23.8243" cy="9.47222" rx="9.70623" ry="9.47222" fill="#008080"/>
<path d="M27.3278 13.4953V14.5833H21.1838V13.4953H23.6398V5.67931C23.6398 5.44465 23.6478 5.20731 23.6638 4.96731L21.6238 6.71931C21.5544 6.77798 21.4851 6.81531 21.4158 6.83131C21.3464 6.84198 21.2824 6.84198 21.2238 6.83131C21.1651 6.82065 21.1091 6.79931 21.0558 6.76731C21.0078 6.73531 20.9704 6.70065 20.9438 6.66331L20.4958 6.04731L23.9118 3.09531H25.0718V13.4953H27.3278Z" fill="white"/>
</svg>
